<svg width="36" height="36" viewBox="0 0 36 36" fill="none" xmlns="http://www.w3.org/2000/svg">
<path d="M28.32 0H7.68C3.44 0 0 3.44 0 7.68V28.32C0 32.56 3.44 36 7.68 36H28.32C32.56 36 36 32.56 36 28.32V7.68C36 3.44 32.56 0 28.32 0ZM2 28.32V27.04L13.84 15.24L15.28 16.68L2.2 29.72C2.08 29.28 2 28.8 2 28.32ZM2 24.24V21.36L10.96 12.4L12.4 13.84L2 24.24ZM2 18.52V15.68L8.12 9.56L9.56 11L2 18.52ZM2 12.84V9.96L5.24 6.72L6.68 8.16L2 12.84ZM3.04 4.44L3.88 5.28L2.08 7.08C2.12 6.08 2.48 5.2 3.04 4.44ZM3.08 31.64L16.64 18.08L18.08 19.52L4.56 33.08C4 32.68 3.48 32.2 3.08 31.64ZM6.56 33.88L19.52 20.92L20.96 22.36L9.4 33.88L9.52 34H7.68C7.28 34 6.92 33.96 6.56 33.88ZM31.56 32.96C30.92 33.4 30.16 33.72 29.36 33.88L30.92 32.32L31.56 32.96ZM26.52 33.88L26.64 34H23.52L28.04 29.48L29.48 30.92L26.52 33.88ZM20.92 34H17.84L25.2 26.64L26.64 28.08L20.8 33.88L20.92 34ZM15.24 34H12.12L22.36 23.76L23.8 25.2L15.12 33.88L15.24 34ZM34 28.32C34 29.52 33.6 30.64 32.96 31.56L4.44 3.04C5.36 2.4 6.48 2 7.68 2H28.32C31.44 2 34 4.56 34 7.68V28.32Z" fill="#1E90FF"/>
</svg>
