<svg width="48" height="48" viewBox="0 0 48 48" fill="none" xmlns="http://www.w3.org/2000/svg">
<path d="M34.32 6H13.68C9.44 6 6 9.44 6 13.68V34.32C6 38.56 9.44 42 13.68 42H34.32C38.56 42 42 38.56 42 34.32V13.68C42 9.44 38.56 6 34.32 6ZM8 34.32V33.04L19.84 21.24L21.28 22.68L8.2 35.72C8.08 35.28 8 34.8 8 34.32ZM8 30.24V27.36L16.96 18.4L18.4 19.84L8 30.24ZM8 24.52V21.68L14.12 15.56L15.56 17L8 24.52ZM8 18.84V15.96L11.24 12.72L12.68 14.16L8 18.84ZM9.04 10.44L9.88 11.28L8.08 13.08C8.12 12.08 8.48 11.2 9.04 10.44ZM9.08 37.64L22.64 24.08L24.08 25.52L10.56 39.08C10 38.68 9.48 38.2 9.08 37.64ZM12.56 39.88L25.52 26.92L26.96 28.36L15.4 39.88L15.52 40H13.68C13.28 40 12.92 39.96 12.56 39.88ZM37.56 38.96C36.92 39.4 36.16 39.72 35.36 39.88L36.92 38.32L37.56 38.96ZM32.52 39.88L32.64 40H29.52L34.04 35.48L35.48 36.92L32.52 39.88ZM26.92 40H23.84L31.2 32.64L32.64 34.08L26.8 39.88L26.92 40ZM21.24 40H18.12L28.36 29.76L29.8 31.2L21.12 39.88L21.24 40ZM40 34.32C40 35.52 39.6 36.64 38.96 37.56L10.44 9.04C11.36 8.4 12.48 8 13.68 8H34.32C37.44 8 40 10.56 40 13.68V34.32Z" fill="#1E90FF"/>
</svg>
